<svg xmlns="http://www.w3.org/2000/svg" xmlns:xlink="http://www.w3.org/1999/xlink" width="500" zoomAndPan="magnify" viewBox="0 0 375 374.999991" height="500" preserveAspectRatio="xMidYMid meet" version="1.0"><defs><g/><clipPath id="f846ddb065"><path d="M 53.464844 248.222656 L 130.714844 248.222656 L 130.714844 266.222656 L 53.464844 266.222656 Z M 53.464844 248.222656 " clip-rule="nonzero"/></clipPath><clipPath id="fba43d5a23"><path d="M 92.066406 248.222656 L 169.316406 248.222656 L 169.316406 266.222656 L 92.066406 266.222656 Z M 92.066406 248.222656 " clip-rule="nonzero"/></clipPath></defs><rect x="-37.5" width="450" fill="#ffffff" y="-37.499999" height="449.999989" fill-opacity="1"/><rect x="-37.5" width="450" fill="#ffffff" y="-37.499999" height="449.999989" fill-opacity="1"/><rect x="-37.5" width="450" fill="#313533" y="-37.499999" height="449.999989" fill-opacity="1"/><g fill="#4cdac1" fill-opacity="1"><g transform="translate(232.877673, 175.499988)"><g><path d="M 21.140625 -23.265625 L 14.703125 -23.265625 L 14.75 -7.84375 C 14.75 -7.132812 14.835938 -6.601562 15.015625 -6.25 C 15.191406 -5.90625 15.472656 -5.679688 15.859375 -5.578125 C 16.242188 -5.484375 16.734375 -5.4375 17.328125 -5.4375 L 21.21875 -5.4375 L 21.21875 -0.390625 C 20.851562 -0.222656 20.269531 -0.0664062 19.46875 0.078125 C 18.675781 0.234375 17.570312 0.3125 16.15625 0.3125 C 13.613281 0.3125 11.644531 -0.015625 10.25 -0.671875 C 8.863281 -1.328125 7.898438 -2.242188 7.359375 -3.421875 C 6.816406 -4.597656 6.546875 -5.957031 6.546875 -7.5 L 6.546875 -23.265625 L 1.84375 -23.265625 L 1.84375 -28.953125 L 6.828125 -28.953125 L 8.875 -37.6875 L 14.703125 -37.6875 L 14.703125 -28.984375 L 21.140625 -28.984375 Z M 21.140625 -23.265625 "/></g></g></g><g fill="#4cdac1" fill-opacity="1"><g transform="translate(256.53444, 175.499988)"><g><path d="M 3.5 0 L 3.5 -41.609375 L 11.625 -41.609375 L 11.625 -24.78125 C 12.082031 -25.445312 12.664062 -26.113281 13.375 -26.78125 C 14.09375 -27.445312 14.984375 -28.003906 16.046875 -28.453125 C 17.109375 -28.898438 18.40625 -29.125 19.9375 -29.125 C 21.78125 -29.125 23.460938 -28.765625 24.984375 -28.046875 C 26.503906 -27.328125 27.726562 -26.285156 28.65625 -24.921875 C 29.582031 -23.554688 30.046875 -21.894531 30.046875 -19.9375 L 30.046875 0 L 21.84375 0 L 21.84375 -18.734375 C 21.84375 -20.035156 21.367188 -21.035156 20.421875 -21.734375 C 19.484375 -22.441406 18.34375 -22.796875 17 -22.796875 C 16.125 -22.796875 15.273438 -22.632812 14.453125 -22.3125 C 13.628906 -22 12.957031 -21.519531 12.4375 -20.875 C 11.925781 -20.226562 11.671875 -19.429688 11.671875 -18.484375 L 11.671875 0 Z M 3.5 0 "/></g></g></g><g fill="#4cdac1" fill-opacity="1"><g transform="translate(289.70991, 175.499988)"><g><path d="M 10.21875 -12.59375 C 10.195312 -11.125 10.425781 -9.84375 10.90625 -8.75 C 11.394531 -7.65625 12.101562 -6.8125 13.03125 -6.21875 C 13.957031 -5.632812 15.070312 -5.34375 16.375 -5.34375 C 17.78125 -5.34375 19.007812 -5.640625 20.0625 -6.234375 C 21.113281 -6.835938 21.847656 -7.820312 22.265625 -9.1875 L 29.625 -9.1875 C 29.300781 -7.132812 28.484375 -5.378906 27.171875 -3.921875 C 25.859375 -2.460938 24.265625 -1.347656 22.390625 -0.578125 C 20.523438 0.179688 18.585938 0.5625 16.578125 0.5625 C 13.722656 0.5625 11.207031 -0.0351562 9.03125 -1.234375 C 6.851562 -2.441406 5.15625 -4.144531 3.9375 -6.34375 C 2.726562 -8.550781 2.125 -11.148438 2.125 -14.140625 C 2.125 -17.035156 2.675781 -19.644531 3.78125 -21.96875 C 4.882812 -24.289062 6.484375 -26.128906 8.578125 -27.484375 C 10.679688 -28.835938 13.207031 -29.515625 16.15625 -29.515625 C 19.101562 -29.515625 21.578125 -28.890625 23.578125 -27.640625 C 25.585938 -26.398438 27.101562 -24.675781 28.125 -22.46875 C 29.144531 -20.257812 29.65625 -17.707031 29.65625 -14.8125 L 29.65625 -12.59375 Z M 10.1875 -17.46875 L 22.015625 -17.46875 C 22.015625 -18.625 21.796875 -19.6875 21.359375 -20.65625 C 20.929688 -21.632812 20.28125 -22.398438 19.40625 -22.953125 C 18.539062 -23.515625 17.457031 -23.796875 16.15625 -23.796875 C 14.882812 -23.796875 13.804688 -23.492188 12.921875 -22.890625 C 12.035156 -22.285156 11.359375 -21.492188 10.890625 -20.515625 C 10.421875 -19.546875 10.1875 -18.53125 10.1875 -17.46875 Z M 10.1875 -17.46875 "/></g></g></g><g fill="#4cdac1" fill-opacity="1"><g transform="translate(54.201904, 239.249984)"><g><path d="M 43.421875 -28.953125 L 33.90625 0 L 27.40625 0 L 22.015625 -17.53125 L 16.625 0 L 10.296875 0 L 0.921875 -28.953125 L 8.140625 -28.953125 L 13.6875 -11 L 13.921875 -11 L 19.234375 -28.953125 L 25.0625 -28.953125 L 30.4375 -11 L 30.65625 -11 L 36.03125 -28.953125 Z M 43.421875 -28.953125 "/></g></g></g><g fill="#4cdac1" fill-opacity="1"><g transform="translate(98.519856, 239.249984)"><g><path d="M 10.21875 -12.59375 C 10.195312 -11.125 10.425781 -9.84375 10.90625 -8.75 C 11.394531 -7.65625 12.101562 -6.8125 13.03125 -6.21875 C 13.957031 -5.632812 15.070312 -5.34375 16.375 -5.34375 C 17.78125 -5.34375 19.007812 -5.640625 20.0625 -6.234375 C 21.113281 -6.835938 21.847656 -7.820312 22.265625 -9.1875 L 29.625 -9.1875 C 29.300781 -7.132812 28.484375 -5.378906 27.171875 -3.921875 C 25.859375 -2.460938 24.265625 -1.347656 22.390625 -0.578125 C 20.523438 0.179688 18.585938 0.5625 16.578125 0.5625 C 13.722656 0.5625 11.207031 -0.0351562 9.03125 -1.234375 C 6.851562 -2.441406 5.15625 -4.144531 3.9375 -6.34375 C 2.726562 -8.550781 2.125 -11.148438 2.125 -14.140625 C 2.125 -17.035156 2.675781 -19.644531 3.78125 -21.96875 C 4.882812 -24.289062 6.484375 -26.128906 8.578125 -27.484375 C 10.679688 -28.835938 13.207031 -29.515625 16.15625 -29.515625 C 19.101562 -29.515625 21.578125 -28.890625 23.578125 -27.640625 C 25.585938 -26.398438 27.101562 -24.675781 28.125 -22.46875 C 29.144531 -20.257812 29.65625 -17.707031 29.65625 -14.8125 L 29.65625 -12.59375 Z M 10.1875 -17.46875 L 22.015625 -17.46875 C 22.015625 -18.625 21.796875 -19.6875 21.359375 -20.65625 C 20.929688 -21.632812 20.28125 -22.398438 19.40625 -22.953125 C 18.539062 -23.515625 17.457031 -23.796875 16.15625 -23.796875 C 14.882812 -23.796875 13.804688 -23.492188 12.921875 -22.890625 C 12.035156 -22.285156 11.359375 -21.492188 10.890625 -20.515625 C 10.421875 -19.546875 10.1875 -18.53125 10.1875 -17.46875 Z M 10.1875 -17.46875 "/></g></g></g><g fill="#4cdac1" fill-opacity="1"><g transform="translate(130.351515, 239.249984)"><g><path d="M 10.21875 -12.59375 C 10.195312 -11.125 10.425781 -9.84375 10.90625 -8.75 C 11.394531 -7.65625 12.101562 -6.8125 13.03125 -6.21875 C 13.957031 -5.632812 15.070312 -5.34375 16.375 -5.34375 C 17.78125 -5.34375 19.007812 -5.640625 20.0625 -6.234375 C 21.113281 -6.835938 21.847656 -7.820312 22.265625 -9.1875 L 29.625 -9.1875 C 29.300781 -7.132812 28.484375 -5.378906 27.171875 -3.921875 C 25.859375 -2.460938 24.265625 -1.347656 22.390625 -0.578125 C 20.523438 0.179688 18.585938 0.5625 16.578125 0.5625 C 13.722656 0.5625 11.207031 -0.0351562 9.03125 -1.234375 C 6.851562 -2.441406 5.15625 -4.144531 3.9375 -6.34375 C 2.726562 -8.550781 2.125 -11.148438 2.125 -14.140625 C 2.125 -17.035156 2.675781 -19.644531 3.78125 -21.96875 C 4.882812 -24.289062 6.484375 -26.128906 8.578125 -27.484375 C 10.679688 -28.835938 13.207031 -29.515625 16.15625 -29.515625 C 19.101562 -29.515625 21.578125 -28.890625 23.578125 -27.640625 C 25.585938 -26.398438 27.101562 -24.675781 28.125 -22.46875 C 29.144531 -20.257812 29.65625 -17.707031 29.65625 -14.8125 L 29.65625 -12.59375 Z M 10.1875 -17.46875 L 22.015625 -17.46875 C 22.015625 -18.625 21.796875 -19.6875 21.359375 -20.65625 C 20.929688 -21.632812 20.28125 -22.398438 19.40625 -22.953125 C 18.539062 -23.515625 17.457031 -23.796875 16.15625 -23.796875 C 14.882812 -23.796875 13.804688 -23.492188 12.921875 -22.890625 C 12.035156 -22.285156 11.359375 -21.492188 10.890625 -20.515625 C 10.421875 -19.546875 10.1875 -18.53125 10.1875 -17.46875 Z M 10.1875 -17.46875 "/></g></g></g><g fill="#4cdac1" fill-opacity="1"><g transform="translate(162.183174, 239.249984)"><g><path d="M 31.46875 0 L 23.328125 0 L 15.515625 -12.484375 L 11.671875 -8.40625 L 11.671875 0 L 3.5 0 L 3.5 -41.609375 L 11.671875 -41.609375 L 11.671875 -16.9375 L 22.3125 -28.953125 L 31.109375 -28.953125 L 20.578125 -17.421875 Z M 31.46875 0 "/></g></g></g><g fill="#4cdac1" fill-opacity="1"><g transform="translate(194.714731, 239.249984)"><g><path d="M 14.25 0.5625 C 10.363281 0.5625 7.335938 -0.773438 5.171875 -3.453125 C 3.015625 -6.128906 1.9375 -9.859375 1.9375 -14.640625 C 1.9375 -17.671875 2.375 -20.296875 3.25 -22.515625 C 4.125 -24.734375 5.421875 -26.453125 7.140625 -27.671875 C 8.859375 -28.898438 10.957031 -29.515625 13.4375 -29.515625 C 14.488281 -29.515625 15.460938 -29.394531 16.359375 -29.15625 C 17.265625 -28.925781 18.09375 -28.601562 18.84375 -28.1875 C 19.59375 -27.78125 20.242188 -27.304688 20.796875 -26.765625 C 21.359375 -26.222656 21.816406 -25.644531 22.171875 -25.03125 L 22.171875 -41.609375 L 30.375 -41.609375 L 30.375 0 L 24.4375 0 L 23.515625 -5.9375 C 23.253906 -5.132812 22.890625 -4.347656 22.421875 -3.578125 C 21.960938 -2.816406 21.367188 -2.125 20.640625 -1.5 C 19.910156 -0.875 19.015625 -0.375 17.953125 0 C 16.898438 0.375 15.664062 0.5625 14.25 0.5625 Z M 16.046875 -5.3125 C 18.097656 -5.3125 19.628906 -6.03125 20.640625 -7.46875 C 21.660156 -8.90625 22.171875 -11.332031 22.171875 -14.75 C 22.148438 -16.726562 21.914062 -18.367188 21.46875 -19.671875 C 21.019531 -20.984375 20.351562 -21.960938 19.46875 -22.609375 C 18.582031 -23.253906 17.457031 -23.578125 16.09375 -23.578125 C 14.320312 -23.578125 12.847656 -22.898438 11.671875 -21.546875 C 10.492188 -20.191406 9.90625 -17.925781 9.90625 -14.75 C 9.90625 -11.519531 10.457031 -9.140625 11.5625 -7.609375 C 12.664062 -6.078125 14.160156 -5.3125 16.046875 -5.3125 Z M 16.046875 -5.3125 "/></g></g></g><g fill="#4cdac1" fill-opacity="1"><g transform="translate(228.59011, 239.249984)"><g><path d="M 11.90625 0.5625 C 10.050781 0.5625 8.382812 0.21875 6.90625 -0.46875 C 5.4375 -1.164062 4.269531 -2.171875 3.40625 -3.484375 C 2.550781 -4.796875 2.125 -6.394531 2.125 -8.28125 C 2.125 -11.457031 3.304688 -13.867188 5.671875 -15.515625 C 8.046875 -17.171875 11.789062 -18.03125 16.90625 -18.09375 L 20.53125 -18.140625 L 20.53125 -19.875 C 20.53125 -21.207031 20.140625 -22.234375 19.359375 -22.953125 C 18.585938 -23.671875 17.390625 -24.019531 15.765625 -24 C 14.566406 -23.976562 13.429688 -23.695312 12.359375 -23.15625 C 11.285156 -22.613281 10.550781 -21.671875 10.15625 -20.328125 L 3.359375 -20.328125 C 3.472656 -22.421875 4.078125 -24.144531 5.171875 -25.5 C 6.273438 -26.851562 7.773438 -27.859375 9.671875 -28.515625 C 11.566406 -29.179688 13.71875 -29.515625 16.125 -29.515625 C 19.09375 -29.515625 21.472656 -29.144531 23.265625 -28.40625 C 25.054688 -27.664062 26.351562 -26.609375 27.15625 -25.234375 C 27.957031 -23.867188 28.359375 -22.242188 28.359375 -20.359375 L 28.359375 0 L 21.53125 0 L 20.859375 -4.984375 C 19.867188 -2.890625 18.628906 -1.441406 17.140625 -0.640625 C 15.660156 0.160156 13.914062 0.5625 11.90625 0.5625 Z M 14.640625 -4.8125 C 15.390625 -4.8125 16.113281 -4.945312 16.8125 -5.21875 C 17.507812 -5.488281 18.132812 -5.851562 18.6875 -6.3125 C 19.238281 -6.769531 19.679688 -7.285156 20.015625 -7.859375 C 20.359375 -8.441406 20.53125 -9.039062 20.53125 -9.65625 L 20.53125 -13.9375 L 17.578125 -13.890625 C 16.222656 -13.867188 14.957031 -13.703125 13.78125 -13.390625 C 12.601562 -13.085938 11.65625 -12.585938 10.9375 -11.890625 C 10.21875 -11.203125 9.859375 -10.269531 9.859375 -9.09375 C 9.859375 -7.75 10.320312 -6.695312 11.25 -5.9375 C 12.1875 -5.1875 13.316406 -4.8125 14.640625 -4.8125 Z M 14.640625 -4.8125 "/></g></g></g><g fill="#4cdac1" fill-opacity="1"><g transform="translate(260.701738, 239.249984)"><g><path d="M 8.015625 9.234375 C 6.035156 9.234375 4.640625 9.070312 3.828125 8.75 C 3.015625 8.425781 2.609375 8.265625 2.609375 8.265625 L 2.609375 3.046875 L 5.453125 3.15625 C 6.710938 3.238281 7.722656 3.179688 8.484375 2.984375 C 9.242188 2.785156 9.828125 2.523438 10.234375 2.203125 C 10.640625 1.890625 10.925781 1.5625 11.09375 1.21875 C 11.257812 0.875 11.378906 0.597656 11.453125 0.390625 L 11.984375 -1.203125 L 0.734375 -28.953125 L 8.8125 -28.953125 L 15.765625 -10.078125 L 22.796875 -28.953125 L 30.765625 -28.953125 L 19.046875 0.171875 C 18.035156 2.628906 16.96875 4.507812 15.84375 5.8125 C 14.726562 7.125 13.519531 8.019531 12.21875 8.5 C 10.925781 8.988281 9.523438 9.234375 8.015625 9.234375 Z M 8.015625 9.234375 "/></g></g></g><g fill="#4cdac1" fill-opacity="1"><g transform="translate(292.197433, 239.249984)"><g><path d="M 14.953125 0.5625 C 12.929688 0.5625 10.988281 0.234375 9.125 -0.421875 C 7.257812 -1.085938 5.679688 -2.132812 4.390625 -3.5625 C 3.109375 -5 2.289062 -6.851562 1.9375 -9.125 L 9.015625 -9.125 C 9.253906 -8.101562 9.695312 -7.289062 10.34375 -6.6875 C 10.988281 -6.09375 11.722656 -5.671875 12.546875 -5.421875 C 13.367188 -5.171875 14.148438 -5.046875 14.890625 -5.046875 C 16.460938 -5.046875 17.726562 -5.289062 18.6875 -5.78125 C 19.644531 -6.28125 20.125 -7.039062 20.125 -8.0625 C 20.125 -8.84375 19.835938 -9.46875 19.265625 -9.9375 C 18.703125 -10.40625 17.769531 -10.757812 16.46875 -11 L 11.375 -12.0625 C 8.8125 -12.601562 6.753906 -13.519531 5.203125 -14.8125 C 3.660156 -16.113281 2.867188 -17.960938 2.828125 -20.359375 C 2.828125 -22.085938 3.285156 -23.644531 4.203125 -25.03125 C 5.128906 -26.414062 6.5 -27.507812 8.3125 -28.3125 C 10.125 -29.113281 12.347656 -29.515625 14.984375 -29.515625 C 18.546875 -29.515625 21.394531 -28.726562 23.53125 -27.15625 C 25.664062 -25.59375 26.753906 -23.382812 26.796875 -20.53125 L 19.96875 -20.53125 C 19.757812 -21.644531 19.203125 -22.503906 18.296875 -23.109375 C 17.390625 -23.722656 16.253906 -24.03125 14.890625 -24.03125 C 13.472656 -24.03125 12.304688 -23.773438 11.390625 -23.265625 C 10.484375 -22.765625 10.03125 -22 10.03125 -20.96875 C 10.03125 -20.207031 10.398438 -19.609375 11.140625 -19.171875 C 11.890625 -18.734375 13.046875 -18.351562 14.609375 -18.03125 L 19.3125 -16.96875 C 20.9375 -16.570312 22.257812 -16.035156 23.28125 -15.359375 C 24.300781 -14.679688 25.085938 -13.9375 25.640625 -13.125 C 26.203125 -12.320312 26.585938 -11.515625 26.796875 -10.703125 C 27.015625 -9.890625 27.125 -9.160156 27.125 -8.515625 C 27.125 -6.585938 26.609375 -4.945312 25.578125 -3.59375 C 24.554688 -2.238281 23.128906 -1.207031 21.296875 -0.5 C 19.472656 0.207031 17.359375 0.5625 14.953125 0.5625 Z M 14.953125 0.5625 "/></g></g></g><path fill="#fefefe" d="M 72.890625 257.253906 C 72.890625 258.203125 73.351562 258.984375 73.792969 259.515625 C 74.21875 260.035156 74.34375 260.105469 74.777344 260.492188 L 75.464844 261.003906 C 75.628906 261.125 75.765625 261.195312 75.933594 261.304688 C 76.117188 261.421875 76.273438 261.492188 76.453125 261.597656 C 76.777344 261.785156 77.148438 261.984375 77.503906 262.128906 C 78.441406 262.503906 78.699219 262.648438 79.789062 263.011719 C 81.292969 263.511719 84.539062 264.246094 86.324219 264.398438 C 86.785156 264.4375 87.269531 264.53125 87.753906 264.550781 C 87.9375 264.558594 88.265625 264.582031 88.464844 264.609375 C 89.226562 264.722656 92.539062 264.703125 93.328125 264.703125 L 95.570312 264.625 C 95.777344 264.609375 96.09375 264.5625 96.304688 264.550781 C 98.898438 264.40625 102.996094 263.578125 105.402344 262.632812 C 107.328125 261.875 108.894531 261.113281 110.25 259.613281 C 111.535156 258.1875 111.535156 256.226562 110.191406 254.835938 L 108.890625 253.667969 C 104.898438 250.761719 97.324219 249.765625 92.050781 249.765625 C 89.132812 249.765625 85.6875 250.0625 82.972656 250.660156 C 81.117188 251.070312 79.625 251.476562 77.859375 252.226562 C 76.164062 252.949219 73.464844 254.46875 72.992188 256.503906 C 72.941406 256.726562 72.890625 257 72.890625 257.253906 Z M 72.890625 257.253906 " fill-opacity="1" fill-rule="evenodd"/><path fill="#4cdac1" d="M 54.667969 254.027344 C 54.40625 254.945312 54.484375 256.105469 54.484375 257.175781 C 54.484375 258.273438 54.433594 259.332031 54.632812 260.332031 C 54.949219 261.917969 56 263.210938 56.957031 263.9375 C 57.511719 264.355469 58.136719 264.703125 58.917969 264.949219 C 59.859375 265.246094 60.507812 265.230469 61.570312 265.238281 L 65.375 265.234375 L 66.75 265.242188 L 74.910156 265.238281 L 111.378906 265.230469 L 120.433594 265.234375 C 121.339844 265.210938 122.277344 265.230469 123.1875 265.234375 C 123.621094 265.234375 124.023438 265.199219 124.433594 265.121094 C 124.847656 265.042969 125.1875 264.902344 125.546875 264.820312 C 125.667969 264.75 125.863281 264.683594 126.003906 264.613281 C 126.175781 264.535156 127.195312 263.980469 127.210938 263.816406 C 127.5 263.648438 127.679688 263.410156 127.902344 263.191406 C 128.132812 262.972656 128.292969 262.753906 128.476562 262.496094 C 128.710938 262.164062 129.234375 261.25 129.300781 260.765625 C 129.460938 260.535156 129.515625 259.742188 129.566406 259.4375 C 129.59375 258.445312 129.71875 254.292969 129.300781 253.695312 C 129.1875 253.003906 128.484375 251.921875 128.125 251.515625 C 127.984375 251.359375 127.894531 251.238281 127.742188 251.085938 L 126.808594 250.324219 C 126.664062 250.222656 126.40625 250.125 126.296875 249.980469 C 126.097656 249.945312 125.890625 249.796875 125.679688 249.714844 C 125.46875 249.628906 125.28125 249.558594 125.050781 249.492188 C 124.71875 249.394531 123.980469 249.21875 123.597656 249.261719 C 123.332031 249.160156 116.480469 249.242188 115.527344 249.234375 L 78.320312 249.230469 L 75.789062 249.238281 C 75.199219 249.289062 74.441406 249.25 73.832031 249.25 C 72.535156 249.246094 60.675781 249.179688 60.363281 249.253906 C 58.867188 249.304688 57.429688 250.089844 56.664062 250.773438 C 56.195312 251.191406 55.835938 251.582031 55.460938 252.160156 C 55.175781 252.605469 54.761719 253.40625 54.667969 254.027344 Z M 54.667969 254.027344 " fill-opacity="1" fill-rule="evenodd"/><g clip-path="url(#f846ddb065)"><path fill="#4cdac1" d="M 54.050781 261.617188 C 54.058594 261.625 54.066406 261.625 54.070312 261.640625 L 54.359375 262.214844 C 54.730469 262.910156 54.914062 263.15625 55.398438 263.71875 L 55.476562 263.847656 L 56.59375 264.792969 C 56.78125 264.933594 57.011719 265.078125 57.226562 265.203125 C 57.332031 265.257812 57.828125 265.507812 57.855469 265.535156 C 58.792969 265.765625 59.007812 266.082031 60.523438 266.148438 C 61.585938 266.195312 62.738281 266.15625 63.8125 266.15625 C 64.894531 266.15625 65.976562 266.15625 67.0625 266.15625 C 68.136719 266.15625 69.277344 266.195312 70.347656 266.15625 L 91.171875 266.152344 C 92.234375 266.097656 93.445312 266.148438 94.523438 266.148438 L 121.679688 266.152344 C 122.789062 266.152344 123.847656 266.210938 124.894531 265.964844 C 127.507812 265.351562 129.472656 263.414062 130.1875 261.085938 C 130.523438 259.988281 130.511719 259.226562 130.511719 258.019531 C 130.511719 256.035156 130.714844 254.496094 129.921875 252.683594 C 129.828125 252.46875 129.707031 252.289062 129.644531 252.074219 C 129.566406 252.035156 129.410156 251.707031 129.34375 251.609375 C 128.355469 250.167969 127.695312 249.894531 126.273438 248.976562 C 125.855469 248.792969 125.433594 248.636719 124.984375 248.527344 C 124.652344 248.449219 124.195312 248.332031 123.855469 248.371094 C 123.699219 248.230469 114.414062 248.3125 113.363281 248.3125 L 81.761719 248.316406 C 78.242188 248.316406 74.71875 248.316406 71.199219 248.320312 C 67.699219 248.320312 64.175781 248.277344 60.679688 248.320312 C 57.574219 248.359375 55.238281 250.386719 54.285156 252.40625 C 53.542969 253.984375 53.5625 254.992188 53.5625 256.90625 C 53.5625 258.183594 53.464844 259.375 53.761719 260.617188 C 53.820312 260.847656 54.050781 261.5 54.050781 261.617188 Z M 129.300781 253.695312 C 129.71875 254.292969 129.59375 258.445312 129.566406 259.4375 C 129.515625 259.742188 129.460938 260.535156 129.300781 260.765625 C 129.234375 261.25 128.710938 262.164062 128.476562 262.496094 C 128.292969 262.753906 128.132812 262.972656 127.902344 263.191406 C 127.679688 263.410156 127.5 263.648438 127.210938 263.816406 C 127.195312 263.984375 126.175781 264.535156 126.003906 264.613281 C 125.863281 264.683594 125.667969 264.75 125.546875 264.820312 C 125.1875 264.902344 124.847656 265.042969 124.433594 265.121094 C 124.023438 265.199219 123.621094 265.234375 123.1875 265.234375 C 122.277344 265.230469 121.34375 265.210938 120.433594 265.234375 L 111.378906 265.230469 L 74.910156 265.238281 L 66.75 265.242188 L 65.378906 265.234375 L 61.570312 265.238281 C 60.507812 265.230469 59.859375 265.246094 58.917969 264.949219 C 58.136719 264.703125 57.511719 264.355469 56.957031 263.9375 C 56 263.210938 54.949219 261.917969 54.632812 260.332031 C 54.433594 259.332031 54.488281 258.273438 54.488281 257.175781 C 54.488281 256.105469 54.40625 254.945312 54.667969 254.027344 C 54.761719 253.40625 55.175781 252.605469 55.460938 252.160156 C 55.835938 251.582031 56.195312 251.191406 56.664062 250.773438 C 57.429688 250.085938 58.867188 249.304688 60.363281 249.253906 C 60.675781 249.179688 72.535156 249.246094 73.832031 249.25 C 74.441406 249.25 75.199219 249.289062 75.789062 249.238281 L 78.320312 249.230469 L 115.527344 249.234375 C 116.480469 249.242188 123.332031 249.160156 123.597656 249.261719 C 123.980469 249.21875 124.71875 249.394531 125.050781 249.492188 C 125.28125 249.558594 125.46875 249.628906 125.679688 249.714844 C 125.890625 249.796875 126.097656 249.945312 126.296875 249.980469 C 126.40625 250.125 126.664062 250.222656 126.808594 250.324219 L 127.742188 251.085938 C 127.894531 251.238281 127.984375 251.359375 128.125 251.515625 C 128.484375 251.921875 129.1875 253.003906 129.300781 253.695312 Z M 129.300781 253.695312 " fill-opacity="1" fill-rule="evenodd"/></g><path fill="#fefefe" d="M 111.496094 257.253906 C 111.496094 258.203125 111.953125 258.984375 112.394531 259.515625 C 112.824219 260.035156 112.945312 260.105469 113.382812 260.492188 L 114.066406 261.003906 C 114.230469 261.125 114.367188 261.195312 114.539062 261.304688 C 114.71875 261.421875 114.875 261.492188 115.054688 261.597656 C 115.382812 261.785156 115.75 261.984375 116.109375 262.128906 C 117.042969 262.503906 117.300781 262.648438 118.390625 263.011719 C 119.894531 263.511719 123.140625 264.246094 124.925781 264.398438 C 125.390625 264.4375 125.871094 264.53125 126.359375 264.550781 C 126.539062 264.558594 126.871094 264.582031 127.070312 264.609375 C 127.828125 264.722656 131.144531 264.703125 131.929688 264.703125 L 134.171875 264.625 C 134.382812 264.609375 134.695312 264.5625 134.910156 264.550781 C 137.5 264.40625 141.597656 263.578125 144.003906 262.632812 C 145.933594 261.875 147.496094 261.113281 148.851562 259.613281 C 150.136719 258.1875 150.136719 256.226562 148.792969 254.835938 L 147.492188 253.667969 C 143.503906 250.761719 135.929688 249.765625 130.652344 249.765625 C 127.734375 249.765625 124.292969 250.0625 121.574219 250.660156 C 119.71875 251.070312 118.226562 251.476562 116.460938 252.226562 C 114.769531 252.949219 112.066406 254.46875 111.59375 256.503906 C 111.542969 256.726562 111.496094 257 111.496094 257.253906 Z M 111.496094 257.253906 " fill-opacity="1" fill-rule="evenodd"/><path fill="#fefefe" d="M 93.269531 254.027344 C 93.011719 254.945312 93.089844 256.105469 93.089844 257.175781 C 93.089844 258.273438 93.035156 259.332031 93.238281 260.332031 C 93.554688 261.917969 94.601562 263.210938 95.5625 263.9375 C 96.113281 264.355469 96.738281 264.703125 97.519531 264.949219 C 98.460938 265.246094 99.109375 265.230469 100.175781 265.238281 L 103.980469 265.234375 L 105.355469 265.242188 L 113.511719 265.238281 L 149.980469 265.230469 L 159.039062 265.234375 C 159.945312 265.210938 160.882812 265.230469 161.789062 265.234375 C 162.226562 265.234375 162.625 265.199219 163.039062 265.121094 C 163.453125 265.042969 163.789062 264.902344 164.148438 264.820312 C 164.269531 264.75 164.464844 264.683594 164.609375 264.613281 C 164.78125 264.535156 165.800781 263.980469 165.8125 263.816406 C 166.105469 263.648438 166.28125 263.410156 166.503906 263.191406 C 166.734375 262.972656 166.894531 262.753906 167.078125 262.496094 C 167.3125 262.164062 167.835938 261.25 167.902344 260.765625 C 168.0625 260.535156 168.117188 259.742188 168.167969 259.4375 C 168.195312 258.445312 168.320312 254.292969 167.902344 253.695312 C 167.789062 253.003906 167.085938 251.921875 166.726562 251.515625 C 166.589844 251.359375 166.5 251.238281 166.347656 251.085938 L 165.410156 250.324219 C 165.265625 250.222656 165.007812 250.125 164.898438 249.980469 C 164.699219 249.945312 164.492188 249.796875 164.28125 249.714844 C 164.070312 249.628906 163.882812 249.558594 163.65625 249.492188 C 163.324219 249.394531 162.582031 249.21875 162.199219 249.261719 C 161.9375 249.160156 155.085938 249.242188 154.128906 249.234375 L 116.921875 249.230469 L 114.390625 249.238281 C 113.800781 249.289062 113.042969 249.25 112.433594 249.25 C 111.140625 249.246094 99.277344 249.179688 98.964844 249.253906 C 97.46875 249.304688 96.035156 250.089844 95.265625 250.773438 C 94.796875 251.191406 94.4375 251.582031 94.066406 252.160156 C 93.777344 252.605469 93.367188 253.40625 93.269531 254.027344 Z M 93.269531 254.027344 " fill-opacity="1" fill-rule="evenodd"/><g clip-path="url(#fba43d5a23)"><path fill="#fefefe" d="M 92.652344 261.617188 C 92.660156 261.625 92.671875 261.625 92.675781 261.640625 L 92.960938 262.214844 C 93.332031 262.910156 93.515625 263.15625 94 263.71875 L 94.082031 263.847656 L 95.195312 264.792969 C 95.382812 264.933594 95.613281 265.078125 95.832031 265.203125 C 95.933594 265.257812 96.429688 265.507812 96.457031 265.535156 C 97.394531 265.765625 97.609375 266.082031 99.125 266.148438 C 100.191406 266.195312 101.339844 266.15625 102.414062 266.15625 C 103.5 266.15625 104.582031 266.15625 105.664062 266.15625 C 106.738281 266.15625 107.882812 266.195312 108.949219 266.15625 L 129.773438 266.152344 C 130.839844 266.097656 132.046875 266.148438 133.128906 266.148438 L 160.28125 266.152344 C 161.394531 266.152344 162.453125 266.210938 163.5 265.964844 C 166.109375 265.351562 168.078125 263.414062 168.789062 261.085938 C 169.128906 259.988281 169.113281 259.226562 169.113281 258.019531 C 169.113281 256.035156 169.316406 254.496094 168.527344 252.683594 C 168.433594 252.46875 168.308594 252.289062 168.246094 252.074219 C 168.167969 252.035156 168.015625 251.707031 167.949219 251.609375 C 166.960938 250.167969 166.296875 249.894531 164.875 248.976562 C 164.457031 248.792969 164.039062 248.636719 163.585938 248.527344 C 163.257812 248.449219 162.796875 248.332031 162.460938 248.371094 C 162.304688 248.230469 153.019531 248.3125 151.964844 248.3125 L 120.363281 248.316406 C 116.84375 248.316406 113.324219 248.316406 109.804688 248.320312 C 106.304688 248.320312 102.777344 248.277344 99.28125 248.320312 C 96.179688 248.359375 93.839844 250.386719 92.886719 252.40625 C 92.144531 253.984375 92.164062 254.992188 92.164062 256.90625 C 92.164062 258.183594 92.066406 259.375 92.367188 260.617188 C 92.421875 260.847656 92.65625 261.5 92.652344 261.617188 Z M 167.902344 253.695312 C 168.320312 254.292969 168.195312 258.445312 168.167969 259.4375 C 168.117188 259.742188 168.0625 260.535156 167.902344 260.765625 C 167.835938 261.25 167.3125 262.164062 167.078125 262.496094 C 166.894531 262.753906 166.734375 262.972656 166.507812 263.191406 C 166.28125 263.410156 166.105469 263.648438 165.8125 263.816406 C 165.800781 263.984375 164.78125 264.535156 164.609375 264.613281 C 164.464844 264.683594 164.269531 264.75 164.152344 264.820312 C 163.789062 264.902344 163.453125 265.042969 163.039062 265.121094 C 162.625 265.199219 162.226562 265.234375 161.792969 265.234375 C 160.882812 265.230469 159.945312 265.210938 159.039062 265.234375 L 149.980469 265.230469 L 113.511719 265.238281 L 105.355469 265.242188 L 103.980469 265.234375 L 100.175781 265.238281 C 99.109375 265.230469 98.460938 265.246094 97.519531 264.949219 C 96.738281 264.703125 96.113281 264.355469 95.5625 263.9375 C 94.601562 263.210938 93.554688 261.917969 93.238281 260.332031 C 93.035156 259.332031 93.089844 258.273438 93.089844 257.175781 C 93.089844 256.105469 93.011719 254.945312 93.269531 254.027344 C 93.367188 253.40625 93.777344 252.605469 94.066406 252.160156 C 94.4375 251.582031 94.796875 251.191406 95.265625 250.773438 C 96.035156 250.085938 97.46875 249.304688 98.964844 249.253906 C 99.277344 249.179688 111.140625 249.246094 112.433594 249.25 C 113.042969 249.25 113.800781 249.289062 114.390625 249.238281 L 116.921875 249.230469 L 154.128906 249.234375 C 155.085938 249.242188 161.9375 249.160156 162.199219 249.261719 C 162.585938 249.21875 163.324219 249.394531 163.65625 249.492188 C 163.882812 249.558594 164.070312 249.628906 164.28125 249.714844 C 164.492188 249.796875 164.699219 249.945312 164.898438 249.980469 C 165.007812 250.125 165.265625 250.222656 165.410156 250.324219 L 166.347656 251.085938 C 166.5 251.238281 166.589844 251.359375 166.726562 251.515625 C 167.085938 251.921875 167.789062 253.003906 167.902344 253.695312 Z M 167.902344 253.695312 " fill-opacity="1" fill-rule="evenodd"/></g></svg>